<svg xmlns="http://www.w3.org/2000/svg" version="1.1" xmlns:xlink="http://www.w3.org/1999/xlink" xmlns:svgjs="http://svgjs.dev/svgjs" width="2000" height="1152" viewBox="0 0 2000 1152"><g transform="matrix(1,0,0,1,0.21333333333336668,1.1334933333332629)"><svg viewBox="0 0 375 216" data-background-color="#61777f" preserveAspectRatio="xMidYMid meet" height="1152" width="2000" xmlns="http://www.w3.org/2000/svg" xmlns:xlink="http://www.w3.org/1999/xlink"><g id="tight-bounds" transform="matrix(1,0,0,1,-0.03976000000000113,-0.21211999999999875)"><svg viewBox="0 0 375.07953 216.42464999999999" height="216.42464999999999" width="375.07953"><g><svg></svg></g><g><svg viewBox="0 0 375.07953 216.42464999999999" height="216.42464999999999" width="375.07953"><g transform="matrix(1,0,0,1,-10.22024,-18.84241)"><path d="M10.22 228.358v-209.516h375.08v209.516h-12.966l0-6.714h6.252v-196.088h-361.652v196.088h6.253l0 6.714z" fill="#ffffff" fill-rule="nonzero" stroke="none" stroke-width="1" stroke-linecap="butt" stroke-linejoin="miter" stroke-miterlimit="10" stroke-dasharray="" stroke-dashoffset="0" font-family="none" font-weight="none" font-size="none" text-anchor="none" style="mix-blend-mode: normal" data-fill-palette-color="tertiary"></path><g><path d="M51.001 214.757v0c1.462 0 2.702 0.169 3.722 0.507 1.02 0.338 1.805 0.834 2.356 1.489 0.556 0.649 0.952 1.374 1.187 2.177 0.24 0.796 0.36 1.715 0.36 2.757v0 13.179h-2.316l-0.761-1.8c-1.609 1.467-3.458 2.201-5.546 2.201v0c-1.865 0-3.444-0.562-4.737-1.685-1.293-1.129-1.939-2.446-1.939-3.952v0c0-0.796 0.147-1.513 0.442-2.151 0.295-0.644 0.717-1.178 1.268-1.604 0.551-0.425 1.181-0.788 1.89-1.088 0.704-0.3 1.524-0.529 2.462-0.687 0.938-0.158 1.882-0.27 2.831-0.335 0.944-0.071 1.983-0.106 3.117-0.107v0-1.554c0-0.453-0.019-0.845-0.058-1.178-0.033-0.333-0.142-0.734-0.327-1.203-0.185-0.464-0.439-0.845-0.761-1.145-0.316-0.3-0.794-0.559-1.431-0.777-0.644-0.218-1.404-0.327-2.283-0.328v0c-1.358 0-3.114 0.297-5.268 0.892v0l-0.622-2.397c2.182-0.807 4.32-1.211 6.414-1.211zM55.337 230.669v-4.532h-1.219c-0.764 0-1.423 0.014-1.98 0.041-0.562 0.027-1.219 0.104-1.972 0.229-0.747 0.125-1.361 0.303-1.84 0.532-0.48 0.224-0.892 0.554-1.236 0.99-0.338 0.431-0.507 0.946-0.507 1.546v0c0 0.84 0.423 1.584 1.268 2.233 0.845 0.654 1.854 0.982 3.027 0.982v0c1.718 0 3.204-0.674 4.459-2.021zM65.817 234.866v-19.732h2.298l0.72 1.677c2.542-1.385 4.86-2.078 6.954-2.078v0c1.074 0 2.013 0.169 2.815 0.507 0.796 0.344 1.415 0.772 1.857 1.284 0.436 0.513 0.785 1.156 1.047 1.931 0.262 0.78 0.428 1.524 0.499 2.233 0.076 0.704 0.115 1.508 0.114 2.414v0 11.764h-3.28v-11.985c0-3.463-1.492-5.195-4.475-5.195v0c-1.543 0-3.3 0.513-5.269 1.538v0 15.642zM109.241 217.686v0c-1.56 0-3.319 0.513-5.276 1.538v0 15.642h-3.273v-30.18h3.273v11.945c2.334-1.238 4.519-1.857 6.553-1.857v0c0.878 0 1.666 0.112 2.364 0.335 0.704 0.229 1.282 0.513 1.734 0.851 0.453 0.338 0.84 0.777 1.162 1.317 0.327 0.54 0.575 1.047 0.745 1.522 0.164 0.474 0.289 1.036 0.376 1.685 0.087 0.654 0.142 1.186 0.163 1.595 0.016 0.414 0.025 0.903 0.025 1.465v0 11.322h-3.354v-11.928c0-3.501-1.497-5.252-4.492-5.252zM134.308 232.289l0.458 2.234c-1.931 0.496-3.436 0.744-4.516 0.744-1.074 0-1.985-0.175-2.732-0.524-0.747-0.344-1.314-0.834-1.702-1.472-0.382-0.644-0.657-1.334-0.826-2.07-0.169-0.736-0.254-1.584-0.254-2.544v0-10.946h-2.65v-2.577h2.65v-5.654h3.281v5.654h6.013v2.577h-6.013v10.905c0 2.727 1.077 4.091 3.231 4.09v0c0.387 0 1.407-0.139 3.06-0.417zM147.651 217.768v0c-1.145 0-2.683 0.507-4.614 1.522v0 15.576h-3.28v-19.732h2.298l0.704 1.636c2.383-1.342 4.445-2.013 6.185-2.013v0c2.013 0 3.591 0.731 4.737 2.193v0c2.612-1.451 4.95-2.176 7.011-2.176v0c0.998 0 1.876 0.136 2.634 0.409 0.758 0.273 1.374 0.646 1.849 1.12 0.474 0.469 0.862 1.061 1.162 1.776 0.3 0.714 0.504 1.467 0.613 2.258 0.115 0.791 0.172 1.685 0.172 2.683v0 11.846h-3.272v-12.067c0-0.24-0.008-0.461-0.025-0.662-0.011-0.207-0.044-0.494-0.098-0.859-0.055-0.371-0.134-0.698-0.237-0.982-0.109-0.284-0.267-0.594-0.475-0.933-0.202-0.333-0.45-0.608-0.744-0.826-0.295-0.218-0.668-0.401-1.121-0.548-0.453-0.147-0.957-0.221-1.514-0.221v0c-1.227 0-2.847 0.521-4.859 1.562v0c0.191 0.785 0.286 2.062 0.286 3.829v0 11.707h-3.28v-12.14c0-0.349-0.014-0.679-0.041-0.99-0.027-0.316-0.12-0.734-0.278-1.252-0.158-0.518-0.371-0.96-0.638-1.325-0.267-0.365-0.676-0.69-1.228-0.974-0.556-0.278-1.205-0.417-1.947-0.417zM179.246 225.18l-7.15-10.046h3.796l5.571 7.829 5.375-7.829h3.494l-7.273 10.062 6.896 9.67h-3.796l-5.293-7.412-5.031 7.412h-3.502zM214.703 214.757v0c0.278 0 0.54 0.003 0.785 0.008 0.245 0.005 0.485 0.022 0.72 0.05 0.235 0.027 0.434 0.046 0.597 0.057 0.169 0.016 0.363 0.044 0.581 0.082 0.218 0.038 0.379 0.068 0.483 0.09 0.098 0.022 0.265 0.063 0.499 0.122 0.229 0.06 0.371 0.095 0.425 0.107 0.055 0.011 0.21 0.057 0.467 0.139 0.262 0.082 0.412 0.128 0.45 0.139v0l-0.835 2.495c-1.783-0.491-3.354-0.736-4.712-0.736v0c-0.785 0-1.481 0.079-2.086 0.237-0.611 0.164-1.077 0.357-1.399 0.581-0.327 0.229-0.594 0.494-0.802 0.793-0.207 0.295-0.341 0.556-0.401 0.786-0.06 0.224-0.09 0.445-0.09 0.662v0c0 0.545 0.284 1.031 0.851 1.457 0.567 0.425 1.274 0.772 2.119 1.039 0.845 0.267 1.759 0.584 2.741 0.949 0.987 0.365 1.903 0.75 2.748 1.153 0.845 0.409 1.552 0.979 2.119 1.71 0.567 0.731 0.851 1.576 0.851 2.536v0c0 0.545-0.071 1.074-0.213 1.587-0.142 0.513-0.409 1.05-0.801 1.612-0.393 0.556-0.897 1.039-1.514 1.448-0.622 0.404-1.451 0.739-2.487 1.006-1.042 0.267-2.233 0.401-3.575 0.401v0c-2.04 0-4.276-0.499-6.708-1.497v0l0.916-2.479c1.369 0.507 2.49 0.867 3.362 1.08 0.873 0.213 1.729 0.319 2.569 0.319v0c3.251 0 4.876-1.034 4.876-3.101v0c0-0.453-0.161-0.851-0.483-1.194-0.322-0.344-0.747-0.627-1.276-0.851-0.534-0.218-1.137-0.445-1.808-0.679-0.671-0.235-1.358-0.45-2.062-0.646-0.698-0.202-1.383-0.466-2.053-0.794-0.671-0.322-1.274-0.679-1.808-1.071-0.534-0.393-0.96-0.903-1.276-1.53-0.322-0.627-0.483-1.334-0.483-2.119v0c0-0.48 0.076-0.968 0.229-1.465 0.153-0.502 0.439-1.028 0.859-1.578 0.42-0.556 0.944-1.042 1.571-1.457 0.627-0.42 1.462-0.766 2.503-1.039 1.047-0.273 2.231-0.409 3.551-0.409zM235.409 214.757v0c2.732 0 4.98 0.87 6.741 2.61 1.767 1.745 2.651 4.156 2.651 7.232v0c0 3.261-0.903 5.855-2.708 7.78-1.805 1.925-4.14 2.888-7.003 2.888v0c-2.727 0-4.958-0.903-6.692-2.708-1.729-1.805-2.593-4.251-2.593-7.338v0c0-3.185 0.881-5.727 2.642-7.625 1.767-1.893 4.088-2.839 6.962-2.839zM235.131 217.547v0c-1.636 0-3.068 0.633-4.295 1.898-1.222 1.265-1.833 3.002-1.833 5.211v0c0 2.198 0.597 4.05 1.792 5.555 1.2 1.505 2.752 2.258 4.655 2.258v0c1.756 0 3.221-0.665 4.393-1.996 1.173-1.331 1.759-3.068 1.759-5.211v0c0-1.227-0.188-2.34-0.564-3.338-0.382-0.998-0.884-1.811-1.506-2.438-0.616-0.627-1.304-1.107-2.061-1.44-0.758-0.333-1.538-0.499-2.34-0.499zM251.387 234.866v-30.18h3.28v30.18zM275.3 230.792v-15.658h3.272v19.732h-2.299l-0.695-1.661c-2.514 1.374-4.838 2.062-6.97 2.062v0c-1.08 0-2.018-0.169-2.815-0.507-0.802-0.344-1.421-0.766-1.857-1.268-0.442-0.507-0.796-1.151-1.063-1.931-0.267-0.78-0.436-1.522-0.508-2.225-0.071-0.709-0.106-1.516-0.106-2.422v0-11.78h3.273v12.026c0 3.447 1.497 5.17 4.491 5.17v0c1.543 0 3.302-0.513 5.277-1.538zM295.793 232.289l0.458 2.234c-1.931 0.496-3.436 0.744-4.516 0.744-1.08 0-1.991-0.175-2.732-0.524-0.747-0.344-1.314-0.834-1.702-1.472-0.387-0.644-0.663-1.334-0.826-2.07-0.169-0.736-0.254-1.584-0.254-2.544v0-10.946h-2.65v-2.577h2.65v-5.654h3.281v5.654h6.005v2.577h-6.005v10.905c0 2.727 1.077 4.091 3.231 4.09v0c0.387 0 1.407-0.139 3.06-0.417zM300.947 210.258v-3.772h3.87v3.772zM301.242 234.866v-19.732h3.28v19.732zM320.32 214.757v0c2.727 0 4.974 0.87 6.741 2.61 1.762 1.745 2.642 4.156 2.642 7.232v0c0 3.261-0.903 5.855-2.708 7.78-1.8 1.925-4.131 2.888-6.994 2.888v0c-2.732 0-4.963-0.903-6.692-2.708-1.734-1.805-2.602-4.251-2.602-7.338v0c0-3.185 0.884-5.727 2.651-7.625 1.762-1.893 4.082-2.839 6.962-2.839zM320.042 217.547v0c-1.642 0-3.073 0.633-4.295 1.898-1.227 1.265-1.841 3.002-1.841 5.211v0c0 2.198 0.6 4.05 1.8 5.555 1.194 1.505 2.746 2.258 4.655 2.258v0c1.756 0 3.221-0.665 4.393-1.996 1.173-1.331 1.759-3.068 1.759-5.211v0c0-1.227-0.191-2.34-0.573-3.338-0.382-0.998-0.881-1.811-1.497-2.438-0.622-0.627-1.312-1.107-2.07-1.44-0.758-0.333-1.535-0.499-2.331-0.499zM335.896 234.866v-19.732h2.299l0.72 1.677c2.542-1.385 4.857-2.078 6.946-2.078v0c1.08 0 2.021 0.169 2.822 0.507 0.796 0.344 1.415 0.772 1.857 1.284 0.436 0.513 0.785 1.156 1.048 1.931 0.256 0.78 0.423 1.524 0.499 2.233 0.071 0.704 0.106 1.508 0.106 2.414v0 11.764h-3.272v-11.985c0-3.463-1.492-5.195-4.475-5.195v0c-1.543 0-3.302 0.513-5.277 1.538v0 15.642z" fill="#10353b" fill-rule="nonzero" stroke="none" stroke-width="1" stroke-linecap="butt" stroke-linejoin="miter" stroke-miterlimit="10" stroke-dasharray="" stroke-dashoffset="0" font-family="none" font-weight="none" font-size="none" text-anchor="none" style="mix-blend-mode: normal" data-fill-palette-color="secondary" id="text-1"></path></g></g><g transform="matrix(1,0,0,1,29.33176499999999,70.98997554294175)"><svg viewBox="0 0 316.416 74.44469891411647" height="74.44469891411647" width="316.416"><g><svg viewBox="0 0 316.416 74.44469891411647" height="74.44469891411647" width="316.416"><g><svg viewBox="0 0 316.416 74.44469891411647" height="74.44469891411647" width="316.416"><g id="textblocktransform"><svg viewBox="0 0 316.416 74.44469891411647" height="74.44469891411647" width="316.416" id="textblock"><g><svg viewBox="0 0 316.416 74.44469891411647" height="74.44469891411647" width="316.416"><g transform="matrix(1,0,0,1,0,0)"><svg width="316.416" viewBox="3.5 -35 151.94 35.75" height="74.44469891411647" data-palette-color="#ffffff"><path d="M6.5-33L3.5-33 3.5-35 14.5-35Q26.8-35 29.9-29.1L29.9-29.1Q31.15-26.8 31.15-23.5 31.15-20.2 29.93-17.9 28.7-15.6 26.35-14.35L26.35-14.35Q21.95-12 14.5-12L14.5-12 14-12 14-2 18-2 18 0 3.5 0 3.5-2 6.5-2 6.5-33ZM14.5-33L14.5-33 14-33 14-14 14.5-14Q18.45-14 21.05-16.5 23.65-19 23.65-23.5 23.65-28 21.05-30.5 18.45-33 14.5-33ZM45.4 0L35.9 0 35.9-2 38.9-2 38.9-33 35.9-33 35.9-35 47.6-35 61.9-6.85 61.9-33 58.9-33 58.9-35 68.4-35 68.4-33 65.4-33 65.4 0 57.45 0 42.4-29.6 42.4-2 45.4-2 45.4 0ZM85.1-22.7L85.1-22.7 85.1-5.55Q85.1-4 86.05-3.15 87-2.3 88.7-2.3 90.4-2.3 92-3.7 93.6-5.1 93.6-7.35L93.6-7.35 93.6-25 101.1-25 101.1-5.55Q101.1-4.2 101.75-3.43 102.4-2.65 103.75-2.65 105.1-2.65 106.85-4.1L106.85-4.1 107.75-2.9Q103.75 0.75 99.6 0.75 95.45 0.75 94.1-2.95L94.1-2.95Q92.15-0.9 90.07-0.08 88 0.75 84.77 0.75 81.55 0.75 79.57-1.23 77.6-3.2 77.6-6.6L77.6-6.6 77.6-23.35Q74.85-22.65 73.4-20.9L73.4-20.9 72.05-22.45Q73.5-23.95 75.72-24.85 77.95-25.75 80.12-25.75 82.3-25.75 83.7-24.88 85.1-24 85.1-22.7ZM112.79-22.25L108.69-22.25 108.69-24.3 112.79-24.3 112.79-31.5 120.29-31.5 120.29-24.3 125.94-24.3 125.94-22.25 120.29-22.25 120.29-5.55Q120.29-4.2 120.94-3.43 121.59-2.65 122.94-2.65 124.29-2.65 126.04-4.1L126.04-4.1 126.94-2.9Q122.94 0.75 118.94 0.75L118.94 0.75Q112.79 0.75 112.79-6.6L112.79-6.6 112.79-22.25ZM152.39 0L152.39 0 131.69 0 131.69-2 147.09-23 142.94-23Q139.64-23 138.42-22.35 137.19-21.7 136.74-19.45L136.74-19.45 135.74-14.5 133.79-14.5 132.44-22.9Q132.44-23.9 132.89-24.38 133.34-24.85 133.87-24.93 134.39-25 135.49-25L135.49-25 155.19-25 155.19-23 140.14-2 144.94-2Q148.24-2 149.47-2.65 150.69-3.3 151.14-5.55L151.14-5.55 152.14-10.5 154.09-10.5 155.44-2.1Q155.44-1.1 154.99-0.63 154.54-0.15 154.02-0.08 153.49 0 152.39 0Z" opacity="1" transform="matrix(1,0,0,1,0,0)" fill="#ffffff" class="wordmark-text-0" data-fill-palette-color="primary" id="text-0"></path></svg></g></svg></g></svg></g></svg></g><g></g></svg></g></svg></g></svg></g><defs></defs></svg><rect width="375.07953" height="216.42464999999999" fill="none" stroke="none" visibility="hidden"></rect></g></svg></g></svg>